<svg width="88" height="88" viewBox="0 0 88 88" fill="none" xmlns="http://www.w3.org/2000/svg">
<path d="M11 42.1666C10.9874 47.0062 12.1181 51.7802 14.3 56.1C16.8871 61.2764 20.8642 65.6303 25.786 68.674C30.7078 71.7177 36.3798 73.3311 42.1667 73.3333C47.0062 73.3459 51.7802 72.2152 56.1 70.0333L77 77L70.0333 56.1C72.2153 51.7802 73.346 47.0062 73.3333 42.1666C73.3311 36.3798 71.7178 30.7078 68.674 25.786C65.6303 20.8642 61.2764 16.8871 56.1 14.3C51.7802 12.1181 47.0062 10.9874 42.1667 11H40.3333C32.6907 11.4216 25.4722 14.6474 20.0598 20.0598C14.6475 25.4722 11.4216 32.6907 11 40.3333V42.1666Z" stroke="#E93839" stroke-width="3.5" stroke-linecap="round" stroke-linejoin="round"/>
<path d="M54 30L30 54M30 30L54 54" stroke="#E93839" stroke-width="4" stroke-linecap="round" stroke-linejoin="round"/>
</svg>
