<svg width="47" height="47" viewBox="0 0 47 47" fill="none" xmlns="http://www.w3.org/2000/svg">
<g clip-path="url(#clip0_10_286)">
<path d="M44.9214 34.8372C43.8216 33.7067 41.0818 32.0422 38.5856 33.8343C38.2582 34.0694 38.1831 34.5256 38.4183 34.8531C38.502 34.9696 38.6139 35.0534 38.7377 35.1034L38.7375 35.1041C40.2339 35.7099 41.0186 36.6225 40.89 37.6083C40.7877 38.3923 40.1223 39.0804 39.3752 39.1745C39.0868 39.2106 38.086 39.2544 37.2772 38.296C36.4565 37.3238 35.3864 34.6806 37.4394 27.9004C39.1176 22.3579 38.3764 18.354 37.459 15.9712C36.8164 14.3023 36.0044 13.172 35.4807 12.5542L38.9433 9.09162C39.1841 10.0724 39.7286 10.8999 40.509 11.411C41.4719 12.0415 42.6117 12.0727 43.6357 11.4963C44.9541 10.7544 47.1275 8.38314 46.8704 0.836884C46.8574 0.450337 46.5422 0.146526 46.1644 0.13302L46.1645 0.13083C38.6167 -0.125773 36.2468 2.04726 35.5049 3.36569C34.9287 4.39003 34.9598 5.5296 35.5902 6.49238C36.1018 7.2735 36.9312 7.81664 37.9132 8.05694L34.4482 11.5219C33.8306 10.9982 32.7003 10.1856 31.03 9.54241C28.6473 8.62514 24.6435 7.8838 19.1008 9.56188C12.3207 11.6151 9.6778 10.545 8.70553 9.72443C7.74689 8.91544 7.79057 7.91385 7.82682 7.6261C7.92088 6.87892 8.6088 6.21363 9.39285 6.11142C10.3789 5.98209 11.2913 6.76747 11.8969 8.2639L11.8976 8.26366C11.9474 8.38752 12.0314 8.49945 12.148 8.58304C12.4755 8.81835 12.9316 8.74328 13.1667 8.41574C14.9589 5.91931 13.2946 3.17989 12.1711 2.08717C9.39151 -0.692515 4.86816 -0.692758 2.08835 2.08705C0.741582 3.43382 -0.000121656 5.22432 1.49669e-08 7.12883C1.49669e-08 9.01813 0.849382 10.755 2.05623 12.1383C2.28595 12.4237 3.42758 13.6988 6.12185 14.6022L18.7449 27.2253L12.0018 33.9684C8.03415 33.3937 4.865 36.5069 4.728 36.6442L0.968498 40.4035C0.747179 40.6249 0.691576 40.9626 0.830037 41.2431C0.954262 41.4944 1.20941 41.6498 1.48438 41.6498C1.51638 41.6498 1.5485 41.6477 1.58087 41.6435L5.93752 41.0641L5.35813 45.4206C5.31676 45.7309 5.47785 46.0329 5.75842 46.1715C5.86136 46.2223 5.97183 46.2469 6.08146 46.2469C6.27102 46.2469 6.45779 46.1733 6.59795 46.0331L10.3571 42.2737C10.4942 42.1366 13.6073 38.9689 13.0335 35.0014L19.7772 28.2577L32.3989 40.8794C33.4661 43.4951 34.5776 44.7153 34.863 44.9449C36.2489 46.3136 38.0605 46.9978 39.8723 46.9978C41.6982 46.9978 43.5241 46.3027 44.9142 44.9128C47.694 42.1332 47.694 37.61 44.9214 34.8372ZM36.8118 5.69251C36.4855 5.19427 36.4734 4.62218 36.7775 4.08172C37.1295 3.45597 38.7754 1.47845 45.4281 1.57336C45.523 8.22314 43.5455 9.87178 42.9199 10.2239C42.3793 10.5281 41.8071 10.5159 41.3091 10.1897C40.5709 9.7063 40.1688 8.65775 40.2846 7.51842C40.3158 7.21133 40.1504 6.91761 39.8714 6.78524C39.7476 6.72635 39.6136 6.707 39.4836 6.72051L39.4832 6.71698C38.3433 6.83293 37.2951 6.43057 36.8118 5.69251ZM7.50987 40.3108C7.51802 40.2483 7.51912 40.1839 7.51048 40.1185C7.45743 39.7188 7.09072 39.4384 6.69066 39.491L3.5248 39.9121L4.62701 38.8099L8.7385 38.2631L8.19184 42.3744L7.0895 43.4767L7.51048 40.3111L7.50987 40.3108ZM9.90776 40.5452L10.3113 37.51C10.3646 37.1103 10.0837 36.7432 9.684 36.69C9.61855 36.6814 9.55418 36.6826 9.49164 36.6909L9.49152 36.69L6.45134 37.0943C7.44332 36.3412 9.39747 35.152 11.6096 35.3919C11.846 37.5919 10.6599 39.549 9.90776 40.5452ZM3.12061 11.138C2.04991 10.0669 1.46005 8.64327 1.46005 7.12883C1.46005 5.6144 2.04978 4.19049 3.12061 3.11967C5.33136 0.908913 8.92819 0.909035 11.1447 3.12539C11.2216 3.20107 12.6657 4.64955 12.4802 6.29697C11.6144 5.09718 10.4552 4.50087 9.20426 4.66367C7.76927 4.8508 6.55452 6.04584 6.37834 7.44396C6.31896 7.91616 6.24304 9.55665 7.76392 10.8404C9.89328 12.6376 13.8499 12.6777 19.5241 10.9595C24.622 9.41551 28.2646 10.0605 30.4225 10.8735C31.8692 11.4185 32.8625 12.1097 33.411 12.5591L29.9532 16.0169C28.5579 15.0313 24.4922 12.9047 16.2828 13.8497C6.21858 15.008 3.14689 11.1642 3.12061 11.138ZM8.84046 15.2562C9.92868 15.429 11.1724 15.5336 12.5888 15.5336C13.7553 15.5336 15.0396 15.4625 16.4497 15.3002C23.796 14.4553 27.5494 16.21 28.898 17.0722L19.7773 26.1929L8.84046 15.2562ZM31.7453 38.161L20.8097 27.2254L29.93 18.1051C30.7929 19.4553 32.5464 23.2092 31.7011 30.5519C31.3417 33.6746 31.4301 36.1761 31.7453 38.161ZM43.8819 43.8806C41.6711 46.0912 37.97 45.7293 35.8634 43.8806C35.8355 43.8563 31.993 40.783 33.1517 30.7186C34.0964 22.5119 31.9713 18.446 30.9855 17.0495L34.4443 13.5906C35.6187 15.0255 38.4487 19.5288 36.0421 27.4771C34.3239 33.1516 34.364 37.1083 36.1615 39.2376C37.1852 40.4505 38.4356 40.6477 39.1397 40.6477C39.3185 40.6477 39.462 40.635 39.5577 40.6229C40.9555 40.4467 42.1508 39.2319 42.3378 37.7969C42.5006 36.5476 41.9043 35.3873 40.7043 34.521C42.3521 34.3357 43.8018 35.7808 43.8818 35.8623C46.0923 38.0731 46.0923 41.67 43.8819 43.8806Z" fill="#E93839"/>
</g>
<defs>
<clipPath id="clip0_10_286">
<rect width="47" height="47" fill="white"/>
</clipPath>
</defs>
</svg>
