<?xml version="1.0" encoding="utf-8"?>
<!-- Generator: Adobe Illustrator 26.0.3, SVG Export Plug-In . SVG Version: 6.00 Build 0)  -->
<svg version="1.1" id="Warstwa_1" xmlns="http://www.w3.org/2000/svg" xmlns:xlink="http://www.w3.org/1999/xlink" x="0px" y="0px"
	 viewBox="0 0 1000 150" style="enable-background:new 0 0 1000 150;" xml:space="preserve">
<style type="text/css">
	.st0{fill:#FEFDF9;}
	.st1{fill:none;stroke:#E93839;stroke-width:2;stroke-miterlimit:10;}
</style>
<g>
	<path class="st0" d="M923.55,140.4c0.7-5.51,3.42-10.78,8.06-14.58c4.19-3.43,9.24-5.09,14.26-5.09V32.06
		c-6.08-0.35-12-3.12-16.15-8.2c-3.43-4.19-5.09-9.24-5.09-14.26H76.11c0,6.52-2.82,12.98-8.26,17.43
		c-4.19,3.43-9.24,5.09-14.26,5.09v82.91c6.52,0,12.98,2.82,17.43,8.26c4.08,4.99,5.64,11.19,4.89,17.12H923.55z"/>
	<path class="st1" d="M851.3,118.88H148.16c-17.77,0-32.17-14.4-32.17-32.17V64.24c0-17.77,14.4-32.17,32.17-32.17H851.3
		c17.77,0,32.17,14.4,32.17,32.17v22.47C883.47,104.47,869.07,118.88,851.3,118.88z"/>
	<path class="st1" d="M833.69,109.68H163.47c-17.77,0-32.17-14.4-32.17-32.17v-3.83c0-17.77,14.4-32.17,32.17-32.17h670.21
		c17.77,0,32.17,14.4,32.17,32.17v3.83C865.86,95.28,851.45,109.68,833.69,109.68z"/>
</g>
</svg>
