<svg width="88" height="88" viewBox="0 0 88 88" fill="none" xmlns="http://www.w3.org/2000/svg">
<path d="M62.3383 30.2596C61.4232 29.344 60.3367 28.6178 59.1409 28.1223C57.945 27.6267 56.6632 27.3717 55.3688 27.3717C54.0743 27.3717 52.7925 27.6267 51.5967 28.1223C50.4008 28.6178 49.3143 29.344 48.3992 30.2596L46.5 32.1587L44.6008 30.2596C42.7524 28.4111 40.2454 27.3727 37.6313 27.3727C35.0172 27.3727 32.5101 28.4111 30.6617 30.2596C28.8132 32.108 27.7748 34.615 27.7748 37.2291C27.7748 39.8432 28.8132 42.3503 30.6617 44.1987L46.5 60.0371L62.3383 44.1987C63.2539 43.2836 63.9801 42.1971 64.4756 41.0012C64.9712 39.8054 65.2262 38.5236 65.2262 37.2291C65.2262 35.9347 64.9712 34.6529 64.4756 33.457C63.9801 32.2612 63.2539 31.1747 62.3383 30.2596Z" fill="#E93839" stroke="#E93839" stroke-width="4" stroke-linecap="round" stroke-linejoin="round"/>
<path d="M77 42.1666C77.0126 47.0062 75.8819 51.7802 73.7 56.1C71.1129 61.2764 67.1358 65.6303 62.214 68.674C57.2922 71.7177 51.6202 73.3311 45.8333 73.3333C40.9938 73.3459 36.2198 72.2152 31.9 70.0333L11 77L17.9667 56.1C15.7847 51.7802 14.654 47.0062 14.6667 42.1666C14.6689 36.3798 16.2822 30.7078 19.326 25.786C22.3697 20.8642 26.7236 16.8871 31.9 14.3C36.2198 12.1181 40.9938 10.9874 45.8333 11H47.6667C55.3093 11.4216 62.5278 14.6474 67.9402 20.0598C73.3525 25.4722 76.5784 32.6907 77 40.3333V42.1666Z" stroke="#E93839" stroke-width="3.5" stroke-linecap="round" stroke-linejoin="round"/>
</svg>
