<?xml version="1.0" encoding="utf-8"?>
<!-- Generator: Adobe Illustrator 26.0.3, SVG Export Plug-In . SVG Version: 6.00 Build 0)  -->
<svg version="1.1" id="Warstwa_1" xmlns="http://www.w3.org/2000/svg" xmlns:xlink="http://www.w3.org/1999/xlink" x="0px" y="0px"
	 viewBox="0 0 1000 1600" style="enable-background:new 0 0 1000 1600;" xml:space="preserve">
<style type="text/css">
	.st0{fill:#FEFDF9;}
	.st1{fill:none;stroke:#E93839;stroke-width:2;stroke-miterlimit:10;}
</style>
<path class="st0" d="M951.05,1524.72c0.15,0,0.29,0.01,0.44,0.01v-41.14c-0.15,0-0.29,0.01-0.44,0.01c-12.32,0-22.3-9.98-22.3-22.3
	s9.98-22.3,22.3-22.3c0.15,0,0.29,0.01,0.44,0.01v-44.63c-0.15,0-0.29,0.01-0.44,0.01c-12.32,0-22.3-9.98-22.3-22.3
	c0-12.32,9.98-22.3,22.3-22.3c0.15,0,0.29,0.01,0.44,0.01v-44.63c-0.15,0-0.29,0.01-0.44,0.01c-12.32,0-22.3-9.98-22.3-22.3
	c0-12.32,9.98-22.3,22.3-22.3c0.15,0,0.29,0.01,0.44,0.01v-44.63c-0.15,0-0.29,0.01-0.44,0.01c-12.32,0-22.3-9.98-22.3-22.3
	s9.98-22.3,22.3-22.3c0.15,0,0.29,0.01,0.44,0.01v-44.63c-0.15,0-0.29,0.01-0.44,0.01c-12.32,0-22.3-9.98-22.3-22.3
	s9.98-22.3,22.3-22.3c0.15,0,0.29,0.01,0.44,0.01v-44.63c-0.15,0-0.29,0.01-0.44,0.01c-12.32,0-22.3-9.99-22.3-22.3
	c0-12.32,9.98-22.3,22.3-22.3c0.15,0,0.29,0.01,0.44,0.01v-44.63c-0.15,0-0.29,0.01-0.44,0.01c-12.32,0-22.3-9.98-22.3-22.3
	c0-12.32,9.98-22.3,22.3-22.3c0.15,0,0.29,0.01,0.44,0.01v-44.63c-0.15,0-0.29,0.01-0.44,0.01c-12.32,0-22.3-9.98-22.3-22.3
	c0-12.32,9.98-22.3,22.3-22.3c0.15,0,0.29,0.01,0.44,0.01v-44.63c-0.15,0-0.29,0.01-0.44,0.01c-12.32,0-22.3-9.98-22.3-22.3
	s9.98-22.3,22.3-22.3c0.15,0,0.29,0.01,0.44,0.01v-44.63c-0.15,0-0.29,0.01-0.44,0.01c-12.32,0-22.3-9.98-22.3-22.3
	c0-12.32,9.98-22.3,22.3-22.3c0.15,0,0.29,0.01,0.44,0.01v-44.63c-0.15,0-0.29,0.01-0.44,0.01c-12.32,0-22.3-9.98-22.3-22.3
	c0-12.32,9.98-22.3,22.3-22.3c0.15,0,0.29,0.01,0.44,0.01v-44.63c-0.15,0-0.29,0.01-0.44,0.01c-12.32,0-22.3-9.98-22.3-22.3
	c0-12.32,9.98-22.3,22.3-22.3c0.15,0,0.29,0.01,0.44,0.01V413.1c-0.15,0-0.29,0.01-0.44,0.01c-12.32,0-22.3-9.98-22.3-22.3
	s9.98-22.3,22.3-22.3c0.15,0,0.29,0.01,0.44,0.01v-44.63c-0.15,0-0.29,0.01-0.44,0.01c-12.32,0-22.3-9.98-22.3-22.3
	c0-12.32,9.98-22.3,22.3-22.3c0.15,0,0.29,0.01,0.44,0.01v-44.63c-0.15,0-0.29,0.01-0.44,0.01c-12.32,0-22.3-9.98-22.3-22.3
	s9.98-22.3,22.3-22.3c0.15,0,0.29,0.01,0.44,0.01v-44.63c-0.15,0-0.29,0.01-0.44,0.01c-12.32,0-22.3-9.98-22.3-22.3
	c0-12.32,9.98-22.3,22.3-22.3c0.15,0,0.29,0.01,0.44,0.01V56.27c-0.15,0-0.29,0.01-0.44,0.01c-12.32,0-22.3-9.98-22.3-22.3
	c0-0.08,0.01-0.16,0.01-0.24h-44.62c0,0.08,0.01,0.16,0.01,0.24c0,12.32-9.98,22.3-22.3,22.3c-12.32,0-22.3-9.98-22.3-22.3
	c0-0.08,0.01-0.16,0.01-0.24h-44.62c0,0.08,0.01,0.16,0.01,0.24c0,12.32-9.98,22.3-22.3,22.3s-22.3-9.98-22.3-22.3
	c0-0.08,0.01-0.16,0.01-0.24h-44.62c0,0.08,0.01,0.16,0.01,0.24c0,12.32-9.98,22.3-22.3,22.3s-22.3-9.98-22.3-22.3
	c0-0.08,0.01-0.16,0.01-0.24h-44.62c0,0.08,0.01,0.16,0.01,0.24c0,12.32-9.98,22.3-22.3,22.3s-22.3-9.98-22.3-22.3
	c0-0.08,0.01-0.16,0.01-0.24h-44.62c0,0.08,0.01,0.16,0.01,0.24c0,12.32-9.98,22.3-22.3,22.3c-12.32,0-22.3-9.98-22.3-22.3
	c0-0.08,0.01-0.16,0.01-0.24H438.1c0,0.08,0.01,0.16,0.01,0.24c0,12.32-9.98,22.3-22.3,22.3s-22.3-9.98-22.3-22.3
	c0-0.08,0.01-0.16,0.01-0.24h-44.62c0,0.08,0.01,0.16,0.01,0.24c0,12.32-9.98,22.3-22.3,22.3s-22.3-9.98-22.3-22.3
	c0-0.08,0.01-0.16,0.01-0.24h-44.62c0,0.08,0.01,0.16,0.01,0.24c0,12.32-9.98,22.3-22.3,22.3s-22.3-9.98-22.3-22.3
	c0-0.08,0.01-0.16,0.01-0.24h-44.62c0,0.08,0.01,0.16,0.01,0.24c0,12.32-9.98,22.3-22.3,22.3s-22.3-9.98-22.3-22.3
	c0-0.08,0.01-0.16,0.01-0.24H81.27c0,0.08,0.01,0.16,0.01,0.24c0,12.23-9.85,22.16-22.06,22.3v44.62
	c12.2,0.13,22.06,10.06,22.06,22.3c0,12.23-9.85,22.16-22.06,22.3v44.62c12.2,0.13,22.06,10.06,22.06,22.3s-9.85,22.16-22.06,22.3
	v44.62c12.2,0.13,22.06,10.06,22.06,22.3c0,12.23-9.85,22.16-22.06,22.3v44.62c12.2,0.13,22.06,10.06,22.06,22.3
	s-9.85,22.16-22.06,22.3v44.62c12.2,0.13,22.06,10.06,22.06,22.3c0,12.23-9.85,22.16-22.06,22.3v44.62
	c12.2,0.13,22.06,10.06,22.06,22.3c0,12.23-9.85,22.16-22.06,22.3v44.62c12.2,0.13,22.06,10.06,22.06,22.3
	c0,12.23-9.85,22.16-22.06,22.3v44.62c12.2,0.13,22.06,10.06,22.06,22.3s-9.85,22.16-22.06,22.3v44.62
	c12.2,0.13,22.06,10.06,22.06,22.3c0,12.23-9.85,22.16-22.06,22.3v44.62c12.2,0.13,22.06,10.06,22.06,22.3
	c0,12.24-9.85,22.16-22.06,22.3v44.62c12.2,0.13,22.06,10.06,22.06,22.3c0,12.23-9.85,22.16-22.06,22.3v44.62
	c12.2,0.13,22.06,10.06,22.06,22.3s-9.85,22.16-22.06,22.3v44.62c12.2,0.13,22.06,10.06,22.06,22.3s-9.85,22.16-22.06,22.3v44.62
	c12.2,0.13,22.06,10.06,22.06,22.3c0,12.23-9.85,22.16-22.06,22.3v44.62c12.2,0.13,22.06,10.06,22.06,22.3
	c0,12.23-9.85,22.16-22.06,22.3v44.62c12.2,0.13,22.06,10.06,22.06,22.3s-9.85,22.16-22.06,22.3v41.13
	c12.2,0.13,22.06,10.06,22.06,22.3h44.6c0-12.32,9.98-22.3,22.3-22.3s22.3,9.98,22.3,22.3h44.6c0-12.32,9.98-22.3,22.3-22.3
	s22.3,9.98,22.3,22.3h44.6c0-12.32,9.98-22.3,22.3-22.3s22.3,9.98,22.3,22.3h44.6c0-12.32,9.98-22.3,22.3-22.3s22.3,9.98,22.3,22.3
	h44.6c0-12.32,9.98-22.3,22.3-22.3c12.32,0,22.3,9.98,22.3,22.3h44.6c0-12.32,9.98-22.3,22.3-22.3s22.3,9.98,22.3,22.3h44.6
	c0-12.32,9.98-22.3,22.3-22.3s22.3,9.98,22.3,22.3h44.6c0-12.32,9.98-22.3,22.3-22.3s22.3,9.98,22.3,22.3h44.6
	c0-12.32,9.98-22.3,22.3-22.3c12.32,0,22.3,9.98,22.3,22.3h44.6C928.75,1534.71,938.74,1524.72,951.05,1524.72z"/>
<path class="st1" d="M851.57,1485.75H148.43c-17.77,0-32.17-14.4-32.17-32.17V130c0-17.77,14.4-32.17,32.17-32.17h703.15
	c17.77,0,32.17,14.4,32.17,32.17v1323.57C883.74,1471.34,869.34,1485.75,851.57,1485.75z"/>
<path class="st1" d="M833.96,1468.39H163.74c-17.77,0-32.17-14.4-32.17-32.17V146.85c0-17.77,14.4-32.17,32.17-32.17h670.21
	c17.77,0,32.17,14.4,32.17,32.17v1289.36C866.13,1453.98,851.72,1468.39,833.96,1468.39z"/>
</svg>
