<svg width="388" height="192" viewBox="0 0 388 192" fill="none" xmlns="http://www.w3.org/2000/svg">
<g clip-path="url(#clip0_18_443)">
<mask id="mask0_18_443" style="mask-type:luminance" maskUnits="userSpaceOnUse" x="8" y="-42" width="404" height="238">
<path d="M411.404 -41.4857H8.01611V195.297H411.404V-41.4857Z" fill="white"/>
</mask>
<g mask="url(#mask0_18_443)">
<path d="M367.754 212.768V195.285C363.35 194.862 359.905 191.145 359.905 186.625C359.905 182.105 363.35 178.389 367.754 177.965V160.483C363.35 160.059 359.905 156.343 359.905 151.823C359.905 147.303 363.35 143.586 367.754 143.163V125.68C363.35 125.257 359.905 121.541 359.905 117.02C359.905 112.5 363.35 108.784 367.754 108.36V90.8777C363.35 90.4544 359.905 86.7381 359.905 82.2179C359.905 77.6977 363.35 73.9813 367.754 73.5581V56.0753C363.35 55.652 359.905 51.9357 359.905 47.4155C359.905 42.8953 363.35 39.1789 367.754 38.7556V21.2806C363.35 20.8573 359.905 17.141 359.905 12.6208C359.905 12.3994 359.917 12.1781 359.932 11.9606H342.492C342.507 12.1781 342.519 12.3994 342.519 12.6208C342.519 17.4245 338.627 21.3195 333.828 21.3195C329.028 21.3195 325.136 17.4245 325.136 12.6208C325.136 12.3994 325.148 12.1781 325.163 11.9606H307.723C307.738 12.1781 307.75 12.3994 307.75 12.6208C307.75 17.4245 303.858 21.3195 299.059 21.3195C294.259 21.3195 290.368 17.4245 290.368 12.6208C290.368 12.3994 290.379 12.1781 290.395 11.9606H272.954C272.97 12.1781 272.981 12.3994 272.981 12.6208C272.981 17.4245 269.09 21.3195 264.29 21.3195C259.491 21.3195 255.599 17.4245 255.599 12.6208C255.599 12.3994 255.611 12.1781 255.626 11.9606H238.185C238.201 12.1781 238.213 12.3994 238.213 12.6208C238.213 17.4245 234.321 21.3195 229.521 21.3195C224.722 21.3195 220.83 17.4245 220.83 12.6208C220.83 12.3994 220.842 12.1781 220.857 11.9606H203.417C203.432 12.1781 203.444 12.3994 203.444 12.6208C203.444 17.4245 199.552 21.3195 194.753 21.3195C189.953 21.3195 186.062 17.4245 186.062 12.6208C186.062 12.3994 186.073 12.1781 186.089 11.9606H168.648C168.664 12.1781 168.675 12.3994 168.675 12.6208C168.675 17.4245 164.784 21.3195 159.984 21.3195C155.185 21.3195 151.293 17.4245 151.293 12.6208C151.293 12.3994 151.305 12.1781 151.32 11.9606H133.879C133.895 12.1781 133.907 12.3994 133.907 12.6208C133.907 17.4245 130.015 21.3195 125.215 21.3195C120.416 21.3195 116.524 17.4245 116.524 12.6208C116.524 12.3994 116.536 12.1781 116.551 11.9606H99.0952C99.1108 12.1781 99.1224 12.3994 99.1224 12.6208C99.1224 17.4245 95.2308 21.3195 90.4312 21.3195C85.6316 21.3195 81.74 17.4245 81.74 12.6208C81.74 12.3994 81.7516 12.1781 81.7672 11.9606H64.3266C64.3421 12.1781 64.3537 12.3994 64.3537 12.6208C64.3537 17.4245 60.4621 21.3195 55.6625 21.3195C50.863 21.3195 46.9713 17.4245 46.9713 12.6208C46.9713 12.3994 46.983 12.1781 46.9985 11.9606H29.554C29.5695 12.1781 29.5812 12.3994 29.5812 12.6208C29.5812 17.2031 26.0426 20.9544 21.5496 21.2923V38.7479C26.0426 39.0857 29.5812 42.837 29.5812 47.4193C29.5812 52.0017 26.0426 55.753 21.5496 56.0908V73.5464C26.0426 73.8843 29.5812 77.6356 29.5812 82.2179C29.5812 86.8002 26.0426 90.5515 21.5496 90.8894V108.345C26.0426 108.683 29.5812 112.434 29.5812 117.016C29.5812 121.599 26.0426 125.35 21.5496 125.688V143.144C26.0426 143.481 29.5812 147.233 29.5812 151.815C29.5812 156.397 26.0426 160.149 21.5496 160.486V177.942C26.0426 178.28 29.5812 182.031 29.5812 186.614C29.5812 191.196 26.0426 194.947 21.5496 195.285V212.741C26.0426 213.078 29.5812 216.83 29.5812 221.412H46.9674C46.9674 216.608 50.8591 212.713 55.6586 212.713C60.4582 212.713 64.3498 216.608 64.3498 221.412H81.7361C81.7361 216.608 85.6278 212.713 90.4273 212.713C95.2269 212.713 99.1185 216.608 99.1185 221.412H116.505C116.505 216.608 120.396 212.713 125.196 212.713C129.996 212.713 133.887 216.608 133.887 221.412H151.273C151.273 216.608 155.165 212.713 159.965 212.713C164.764 212.713 168.656 216.608 168.656 221.412H186.042C186.042 216.608 189.934 212.713 194.733 212.713C199.533 212.713 203.425 216.608 203.425 221.412H220.811C220.811 216.608 224.702 212.713 229.502 212.713C234.302 212.713 238.193 216.608 238.193 221.412H255.58C255.58 216.608 259.471 212.713 264.271 212.713C269.07 212.713 272.962 216.608 272.962 221.412H290.348C290.348 216.608 294.24 212.713 299.039 212.713C303.839 212.713 307.731 216.608 307.731 221.412H325.117C325.117 216.608 329.009 212.713 333.808 212.713C338.608 212.713 342.499 216.608 342.499 221.412H359.886C359.905 216.907 363.347 213.191 367.754 212.768Z" fill="#6A1F27"/>
<path d="M46.5134 193.93V49.6096C46.5134 42.7089 52.1006 37.1169 58.9954 37.1169H331.818C338.712 37.1169 344.3 42.7089 344.3 49.6096V195.301" fill="#6A1F27"/>
<path d="M46.5134 193.93V49.6096C46.5134 42.7089 52.1006 37.1169 58.9954 37.1169H331.818C338.712 37.1169 344.3 42.7089 344.3 49.6096V195.301" stroke="#DBDAD8" stroke-width="2" stroke-miterlimit="10"/>
<path d="M52.4575 195.297V55.2598C52.4575 48.3591 58.0447 42.7671 64.9395 42.7671H324.981C331.876 42.7671 337.463 48.3591 337.463 55.2598V195.297" fill="#6A1F27"/>
<path d="M52.4575 195.297V55.2598C52.4575 48.3591 58.0447 42.7671 64.9395 42.7671H324.981C331.876 42.7671 337.463 48.3591 337.463 55.2598V195.297" stroke="#DBDAD8" stroke-width="2" stroke-miterlimit="10"/>
</g>
</g>
<defs>
<clipPath id="clip0_18_443">
<rect width="388" height="233" fill="white"/>
</clipPath>
</defs>
</svg>
