<?xml version="1.0" encoding="utf-8"?>
<!-- Generator: Adobe Illustrator 26.0.3, SVG Export Plug-In . SVG Version: 6.00 Build 0)  -->
<svg version="1.1" id="Warstwa_1" xmlns="http://www.w3.org/2000/svg" xmlns:xlink="http://www.w3.org/1999/xlink" x="0px" y="0px"
	 viewBox="0 0 1000 600" style="enable-background:new 0 0 1000 600;" xml:space="preserve">
<style type="text/css">
	.st0{fill:#6A1F27;}
	.st1{fill:none;stroke:#DBDAD8;stroke-width:2;stroke-miterlimit:10;}
</style>
<g>
	<path class="st0" d="M947.82,547.9v-45.02c-11.35-1.09-20.23-10.66-20.23-22.3c0-11.64,8.88-21.21,20.23-22.3v-45.02
		c-11.35-1.09-20.23-10.66-20.23-22.3s8.88-21.21,20.23-22.3v-45.02c-11.35-1.09-20.23-10.66-20.23-22.3s8.88-21.21,20.23-22.3
		v-45.02c-11.35-1.09-20.23-10.66-20.23-22.3s8.88-21.21,20.23-22.3v-45.02c-11.35-1.09-20.23-10.66-20.23-22.3
		s8.88-21.21,20.23-22.3V54.8c-11.35-1.09-20.23-10.66-20.23-22.3c0-0.57,0.03-1.14,0.07-1.7h-44.95c0.04,0.56,0.07,1.13,0.07,1.7
		c0,12.37-10.03,22.4-22.4,22.4s-22.4-10.03-22.4-22.4c0-0.57,0.03-1.14,0.07-1.7h-44.95c0.04,0.56,0.07,1.13,0.07,1.7
		c0,12.37-10.03,22.4-22.4,22.4c-12.37,0-22.4-10.03-22.4-22.4c0-0.57,0.03-1.14,0.07-1.7h-44.95c0.04,0.56,0.07,1.13,0.07,1.7
		c0,12.37-10.03,22.4-22.4,22.4c-12.37,0-22.4-10.03-22.4-22.4c0-0.57,0.03-1.14,0.07-1.7h-44.95c0.04,0.56,0.07,1.13,0.07,1.7
		c0,12.37-10.03,22.4-22.4,22.4c-12.37,0-22.4-10.03-22.4-22.4c0-0.57,0.03-1.14,0.07-1.7h-44.95c0.04,0.56,0.07,1.13,0.07,1.7
		c0,12.37-10.03,22.4-22.4,22.4c-12.37,0-22.4-10.03-22.4-22.4c0-0.57,0.03-1.14,0.07-1.7h-44.95c0.04,0.56,0.07,1.13,0.07,1.7
		c0,12.37-10.03,22.4-22.4,22.4c-12.37,0-22.4-10.03-22.4-22.4c0-0.57,0.03-1.14,0.07-1.7h-44.95c0.04,0.56,0.07,1.13,0.07,1.7
		c0,12.37-10.03,22.4-22.4,22.4c-12.37,0-22.4-10.03-22.4-22.4c0-0.57,0.03-1.14,0.07-1.7H255.4c0.04,0.56,0.07,1.13,0.07,1.7
		c0,12.37-10.03,22.4-22.4,22.4c-12.37,0-22.4-10.03-22.4-22.4c0-0.57,0.03-1.14,0.07-1.7h-44.95c0.04,0.56,0.07,1.13,0.07,1.7
		c0,12.37-10.03,22.4-22.4,22.4c-12.37,0-22.4-10.03-22.4-22.4c0-0.57,0.03-1.14,0.07-1.7H76.17c0.04,0.56,0.07,1.13,0.07,1.7
		c0,11.8-9.12,21.46-20.7,22.33v44.95c11.58,0.87,20.7,10.53,20.7,22.33s-9.12,21.46-20.7,22.33v44.95
		c11.58,0.87,20.7,10.53,20.7,22.33s-9.12,21.46-20.7,22.33v44.95c11.58,0.87,20.7,10.53,20.7,22.33s-9.12,21.46-20.7,22.33v44.95
		c11.58,0.87,20.7,10.53,20.7,22.33s-9.12,21.46-20.7,22.33v44.95c11.58,0.87,20.7,10.53,20.7,22.33c0,11.8-9.12,21.46-20.7,22.33
		v44.95c11.58,0.87,20.7,10.53,20.7,22.33h44.81c0-12.37,10.03-22.4,22.4-22.4c12.37,0,22.4,10.03,22.4,22.4h44.81
		c0-12.37,10.03-22.4,22.4-22.4c12.37,0,22.4,10.03,22.4,22.4h44.81c0-12.37,10.03-22.4,22.4-22.4c12.37,0,22.4,10.03,22.4,22.4
		h44.81c0-12.37,10.03-22.4,22.4-22.4c12.37,0,22.4,10.03,22.4,22.4h44.81c0-12.37,10.03-22.4,22.4-22.4
		c12.37,0,22.4,10.03,22.4,22.4h44.81c0-12.37,10.03-22.4,22.4-22.4c12.37,0,22.4,10.03,22.4,22.4h44.81
		c0-12.37,10.03-22.4,22.4-22.4c12.37,0,22.4,10.03,22.4,22.4h44.81c0-12.37,10.03-22.4,22.4-22.4c12.37,0,22.4,10.03,22.4,22.4
		h44.81c0-12.37,10.03-22.4,22.4-22.4s22.4,10.03,22.4,22.4h44.81C927.59,558.56,936.46,548.99,947.82,547.9z"/>
	<path class="st1" d="M855.2,513.79H152.05c-17.77,0-32.17-14.4-32.17-32.17V127.75c0-17.77,14.4-32.17,32.17-32.17H855.2
		c17.77,0,32.17,14.4,32.17,32.17v353.87C887.37,499.39,872.97,513.79,855.2,513.79z"/>
	<path class="st1" d="M837.59,499.24H167.37c-17.77,0-32.17-14.4-32.17-32.17V142.3c0-17.77,14.4-32.17,32.17-32.17h670.21
		c17.77,0,32.17,14.4,32.17,32.17v324.77C869.76,484.83,855.35,499.24,837.59,499.24z"/>
</g>
</svg>
